<svg xmlns="http://www.w3.org/2000/svg" viewBox="0 0 64 64"><rect width="64" height="64" rx="14" fill="#22a06b"/><path fill="#fff" d="M32 14c-9.94 0-18 7.6-18 17 0 3.2 1 6.2 2.6 8.7L14 50l10.7-2.6c2.3 1.2 4.8 1.9 7.3 1.9 9.94 0 18-7.6 18-17S41.94 14 32 14Zm10.6 24.2c-.5 1.3-2.7 2.6-3.8 2.7-1 .1-2.1.5-7.3-1.9-6.1-2.8-10-9.4-10.3-9.8-.3-.4-2.4-3.6-2.3-6.8.1-3.3 1.8-4.9 2.4-5.6.6-.7 1.4-.9 1.8-.9h1.3c.4 0 1 .1 1.4 1 .5 1.1 1.7 4 1.8 4.3.1.3.2.6 0 1-.2.4-.3.6-.6 1-.3.4-.6.7-.9 1.1-.3.3-.6.7-.3 1.3.3.6 1.6 2.6 3.3 4.1 2.3 2 4.3 2.7 4.9 3 .6.3 1 .2 1.3-.2.4-.4 1.5-1.7 1.9-2.3.4-.6.8-.5 1.3-.3.5.2 3.4 1.6 4 1.9.6.3 1 .4 1.1.7.2.3.2 1.5-.3 2.8Z"/></svg>
